<?xml version="1.0" encoding="utf-8"?>
<!-- Generator: Adobe Illustrator 21.1.0, SVG Export Plug-In . SVG Version: 6.00 Build 0)  -->
<svg version="1.1" id="Layer_1" xmlns="http://www.w3.org/2000/svg" xmlns:xlink="http://www.w3.org/1999/xlink" x="0px" y="0px"
	 viewBox="0 0 78 95" style="enable-background:new 0 0 78 95;" xml:space="preserve">
<style type="text/css">
	.st0{fill:#FFFFFF;}
	.st1{fill:none;}
</style>
<g>
	<g>
		<polygon class="st0" points="78,0.1 0,0.1 0,94.9 78,94.9 78,0.1 		"/>
		<polyline points="77,1.1 77,93.9 1,93.9 1,1.1 77,1.1 		"/>
		<rect x="4.2" y="21.6" class="st0" width="69.7" height="69.2"/>
		<g>
			<path class="st0" d="M7.3,4.4v13.7h-3V4.4H7.3z"/>
			<path class="st0" d="M24.4,4.4l5.1,13.7h-3.1l-1-3h-5.1l-1.1,3h-3l5.2-13.7H24.4z M24.5,12.8l-1.7-5h0l-1.8,5H24.5z"/>
			<path class="st0" d="M45.7,4.4c0.6,0,1.2,0.1,1.7,0.3c0.5,0.2,0.9,0.5,1.3,0.8c0.3,0.3,0.6,0.7,0.8,1.2c0.2,0.5,0.3,0.9,0.3,1.5
				c0,0.8-0.2,1.5-0.5,2.1c-0.3,0.6-0.9,1-1.7,1.3v0c0.4,0.1,0.7,0.3,0.9,0.5c0.2,0.2,0.4,0.5,0.6,0.7s0.3,0.6,0.3,0.9
				c0.1,0.3,0.1,0.7,0.1,1c0,0.2,0,0.5,0,0.8c0,0.3,0,0.6,0.1,0.9c0,0.3,0.1,0.6,0.2,0.9c0.1,0.3,0.2,0.5,0.3,0.7h-3
				c-0.2-0.4-0.3-0.9-0.3-1.5c0-0.6-0.1-1.2-0.2-1.7c-0.1-0.7-0.3-1.2-0.7-1.6c-0.3-0.3-0.9-0.5-1.6-0.5h-3v5.3h-3V4.4H45.7z
				 M44.6,10.6c0.7,0,1.2-0.2,1.5-0.5c0.3-0.3,0.5-0.8,0.5-1.5c0-0.7-0.2-1.1-0.5-1.4c-0.3-0.3-0.9-0.4-1.5-0.4h-3.3v3.8H44.6z"/>
			<path class="st0" d="M68.5,8c-0.2-0.3-0.4-0.5-0.7-0.8c-0.3-0.2-0.6-0.4-0.9-0.5c-0.3-0.1-0.7-0.2-1.1-0.2
				c-0.7,0-1.2,0.1-1.7,0.4C63.7,7.3,63.3,7.6,63,8c-0.3,0.4-0.5,0.9-0.6,1.5c-0.1,0.6-0.2,1.1-0.2,1.7c0,0.6,0.1,1.1,0.2,1.7
				c0.1,0.5,0.3,1,0.6,1.5c0.3,0.4,0.7,0.8,1.1,1c0.5,0.3,1,0.4,1.7,0.4c0.9,0,1.6-0.3,2.2-0.8c0.5-0.6,0.8-1.3,0.9-2.2h2.9
				c-0.1,0.9-0.3,1.6-0.6,2.3c-0.3,0.7-0.7,1.3-1.3,1.8c-0.5,0.5-1.1,0.9-1.8,1.1c-0.7,0.3-1.5,0.4-2.3,0.4c-1,0-2-0.2-2.8-0.5
				c-0.8-0.4-1.5-0.9-2.1-1.5c-0.6-0.6-1-1.4-1.3-2.2c-0.3-0.9-0.5-1.8-0.5-2.8c0-1,0.2-2,0.5-2.8c0.3-0.9,0.7-1.6,1.3-2.3
				c0.6-0.7,1.3-1.2,2.1-1.5c0.8-0.4,1.8-0.6,2.8-0.6c0.8,0,1.5,0.1,2.1,0.3c0.7,0.2,1.3,0.5,1.8,0.9c0.5,0.4,1,0.9,1.3,1.5
				c0.3,0.6,0.6,1.3,0.7,2.1h-2.9C68.8,8.6,68.7,8.3,68.5,8z"/>
		</g>
		<g>
			<path d="M15.5,48.2H6.7v-5.8h0.8c3,0,5.3-0.6,7.1-1.7c1.7-1.1,2.8-2.9,3.3-5.4h6.6v44h-8.9V48.2z"/>
			<path d="M29.3,59.6c1.2-2,3.1-3.2,5.6-3.7v-0.1c-1.2-0.3-2.2-0.7-3-1.4c-0.8-0.6-1.5-1.3-2-2.1c-0.5-0.8-0.8-1.6-1.1-2.5
				c-0.2-0.9-0.3-1.7-0.3-2.5c0-4.3,1.1-7.4,3.4-9.3c2.3-1.9,5.5-2.8,9.5-2.8c4,0,7.2,0.9,9.5,2.8c2.3,1.9,3.4,5,3.4,9.3
				c0,0.8-0.1,1.6-0.3,2.5c-0.2,0.9-0.6,1.7-1.1,2.5c-0.5,0.8-1.1,1.5-2,2.1c-0.8,0.6-1.8,1.1-3,1.4v0.1c2.5,0.5,4.3,1.7,5.6,3.7
				c1.2,2,1.9,4.4,1.9,7.1c0,1.3-0.2,2.7-0.5,4.2c-0.3,1.5-1,3-2,4.3c-1,1.3-2.4,2.4-4.3,3.3c-1.8,0.9-4.3,1.3-7.4,1.3
				c-3.1,0-5.5-0.4-7.4-1.3c-1.8-0.9-3.3-2-4.3-3.3c-1-1.3-1.6-2.8-2-4.3c-0.3-1.5-0.5-2.9-0.5-4.2C27.4,64,28,61.6,29.3,59.6z
				 M36.6,69.6c0.1,0.9,0.4,1.7,0.8,2.4c0.4,0.7,0.9,1.2,1.6,1.6c0.7,0.4,1.5,0.6,2.5,0.6c1,0,1.8-0.2,2.5-0.6
				c0.7-0.4,1.2-0.9,1.6-1.6c0.4-0.7,0.7-1.5,0.8-2.4c0.1-0.9,0.2-1.9,0.2-3c0-1.1-0.1-2.1-0.2-3c-0.1-0.9-0.4-1.7-0.8-2.4
				c-0.4-0.7-0.9-1.2-1.6-1.6c-0.7-0.4-1.5-0.6-2.5-0.6c-1,0-1.8,0.2-2.5,0.6c-0.7,0.4-1.2,0.9-1.6,1.6c-0.4,0.7-0.7,1.5-0.8,2.4
				c-0.1,0.9-0.2,1.9-0.2,3C36.4,67.7,36.4,68.7,36.6,69.6z M38.3,51.8c0.8,1,1.8,1.5,3.2,1.5c1.3,0,2.4-0.5,3.2-1.5
				c0.8-1,1.2-2.5,1.2-4.7c0-4-1.5-6-4.3-6c-2.9,0-4.4,2-4.4,6C37.1,49.2,37.5,50.8,38.3,51.8z"/>
		</g>
		<path d="M54.4,58v-4.8h6.4v-7.3H65v7.3h6.4V58H65v7.3h-4.2V58H54.4z"/>
	</g>
	<g>
		<g>
			<path d="M65.2,83.4v0.7h-1.5v4.5h-0.9v-4.5h-1.5v-0.7H65.2z M71.3,88.6h-0.9v-4h0l-1.5,4h-0.7l-1.4-4h0v4h-0.9v-5.1h1.4l1.4,3.8
				h0l1.3-3.8h1.4V88.6z"/>
		</g>
		<rect x="71.3" y="88.6" class="st1" width="2.6" height="2.3"/>
	</g>
</g>
</svg>
