<?xml version="1.0" encoding="utf-8"?>
<!-- Generator: Adobe Illustrator 21.1.0, SVG Export Plug-In . SVG Version: 6.00 Build 0)  -->
<svg version="1.1" id="Layer_1" xmlns="http://www.w3.org/2000/svg" xmlns:xlink="http://www.w3.org/1999/xlink" x="0px" y="0px"
	 viewBox="0 0 78 95" style="enable-background:new 0 0 78 95;" xml:space="preserve">
<style type="text/css">
	.st0{fill:#FFFFFF;}
	.st1{fill:none;}
</style>
<g>
	<g>
		<polygon class="st0" points="78,0.1 0,0.1 0,94.9 78,94.9 78,0.1 		"/>
		<polyline points="77,1.1 77,93.9 1,93.9 1,1.1 77,1.1 		"/>
		<rect x="4.1" y="21.6" class="st0" width="69.8" height="69.2"/>
		<g>
			<path d="M47.3,43c-1.8,2.6-3.4,5.3-4.9,8.3c-1.4,2.9-2.7,6-3.8,9.1c-1.1,3.1-2,6.3-2.7,9.5c-0.7,3.2-1.2,6.4-1.6,9.5H25
				c0.3-2.6,0.8-5.4,1.5-8.4C27.1,68,28,65,29.1,62c1.1-3,2.4-6.1,4-9.1c1.6-3.1,3.4-6.1,5.6-9H20.2v-7.7h27.1V43z"/>
		</g>
		<g>
			<path class="st0" d="M8.6,4.4v13.7h-3V4.4H8.6z"/>
			<path class="st0" d="M25.7,4.4l5.1,13.7h-3.1l-1-3h-5.1l-1.1,3h-3l5.2-13.7H25.7z M25.9,12.8l-1.7-5h0l-1.8,5H25.9z"/>
			<path class="st0" d="M47,4.4c0.6,0,1.2,0.1,1.7,0.3c0.5,0.2,0.9,0.5,1.3,0.8c0.3,0.3,0.6,0.7,0.8,1.2C50.9,7.2,51,7.6,51,8.2
				c0,0.8-0.2,1.5-0.5,2.1c-0.3,0.6-0.9,1-1.7,1.3v0c0.4,0.1,0.7,0.3,0.9,0.5c0.2,0.2,0.4,0.5,0.6,0.7s0.3,0.6,0.3,0.9
				c0.1,0.3,0.1,0.7,0.1,1c0,0.2,0,0.5,0,0.8c0,0.3,0,0.6,0.1,0.9c0,0.3,0.1,0.6,0.2,0.9c0.1,0.3,0.2,0.5,0.3,0.7h-3
				c-0.2-0.4-0.3-0.9-0.3-1.5c0-0.6-0.1-1.2-0.2-1.7c-0.1-0.7-0.3-1.2-0.7-1.6c-0.3-0.3-0.9-0.5-1.6-0.5h-3v5.3h-3V4.4H47z
				 M45.9,10.6c0.7,0,1.2-0.2,1.5-0.5C47.8,9.8,48,9.3,48,8.6c0-0.7-0.2-1.1-0.5-1.4c-0.3-0.3-0.9-0.4-1.5-0.4h-3.3v3.8H45.9z"/>
			<path class="st0" d="M69.8,8c-0.2-0.3-0.4-0.5-0.7-0.8c-0.3-0.2-0.6-0.4-0.9-0.5c-0.3-0.1-0.7-0.2-1.1-0.2
				c-0.7,0-1.2,0.1-1.7,0.4C65,7.3,64.6,7.6,64.3,8C64,8.5,63.8,9,63.7,9.5c-0.1,0.6-0.2,1.1-0.2,1.7c0,0.6,0.1,1.1,0.2,1.7
				c0.1,0.5,0.3,1,0.6,1.5c0.3,0.4,0.7,0.8,1.1,1c0.5,0.3,1,0.4,1.7,0.4c0.9,0,1.6-0.3,2.2-0.8c0.5-0.6,0.8-1.3,0.9-2.2h2.9
				c-0.1,0.9-0.3,1.6-0.6,2.3c-0.3,0.7-0.7,1.3-1.3,1.8c-0.5,0.5-1.1,0.9-1.8,1.1c-0.7,0.3-1.5,0.4-2.3,0.4c-1,0-2-0.2-2.8-0.5
				c-0.8-0.4-1.5-0.9-2.1-1.5c-0.6-0.6-1-1.4-1.3-2.2c-0.3-0.9-0.5-1.8-0.5-2.8c0-1,0.2-2,0.5-2.8c0.3-0.9,0.7-1.6,1.3-2.3
				c0.6-0.7,1.3-1.2,2.1-1.5c0.8-0.4,1.8-0.6,2.8-0.6c0.8,0,1.5,0.1,2.1,0.3c0.7,0.2,1.3,0.5,1.8,0.9c0.5,0.4,1,0.9,1.3,1.5
				C72.8,7.5,73,8.2,73.1,9h-2.9C70.1,8.6,70,8.3,69.8,8z"/>
		</g>
		<path d="M42.1,66.2v-4.8h6.4v-7.3h4.2v7.3h6.4v4.8h-6.4v7.3h-4.2v-7.3H42.1z"/>
	</g>
	<g>
		<g>
			<path d="M65.3,83.4v0.7h-1.5v4.5h-0.9v-4.5h-1.5v-0.7H65.3z M71.4,88.6h-0.9v-4h0l-1.5,4h-0.7l-1.4-4h0v4h-0.9v-5.1h1.4l1.4,3.8
				h0l1.3-3.8h1.4V88.6z"/>
		</g>
		<rect x="71.4" y="88.6" class="st1" width="2.6" height="2.3"/>
	</g>
</g>
</svg>
