<?xml version="1.0" encoding="utf-8"?>
<!-- Generator: Adobe Illustrator 21.1.0, SVG Export Plug-In . SVG Version: 6.00 Build 0)  -->
<svg version="1.1" id="Layer_1" xmlns="http://www.w3.org/2000/svg" xmlns:xlink="http://www.w3.org/1999/xlink" x="0px" y="0px"
	 viewBox="0 0 78 95" style="enable-background:new 0 0 78 95;" xml:space="preserve">
<style type="text/css">
	.st0{fill:#FFFFFF;}
	.st1{fill:none;}
</style>
<g>
	<g>
		<polygon class="st0" points="78,0.1 0,0.1 0,94.9 78,94.9 78,0.1 		"/>
		<polyline points="77,1.1 77,93.9 1,93.9 1,1.1 77,1.1 		"/>
		<rect x="4" y="21.6" class="st0" width="69.8" height="69.1"/>
		<g>
			<path d="M15.2,48.2H6.5v-5.8h0.8c3,0,5.3-0.6,7.1-1.7c1.7-1.1,2.8-2.9,3.3-5.4h6.6v44h-8.9V48.2z"/>
			<path d="M44.7,42.5c-0.6-0.9-1.6-1.4-3.1-1.4c-1.2,0-2.1,0.3-2.8,0.8c-0.7,0.6-1.3,1.3-1.7,2.3c-0.4,1-0.7,2.2-0.8,3.5
				c-0.1,1.4-0.2,2.9-0.2,4.5v2.2h0.1c0.7-1.2,1.8-2.1,3.2-2.8c1.4-0.7,3.1-1,5.1-1c1.9,0,3.6,0.3,5,1c1.4,0.7,2.5,1.6,3.3,2.9
				c0.8,1.2,1.5,2.7,1.9,4.3c0.4,1.7,0.6,3.5,0.6,5.5c0,5.1-1.1,9-3.4,11.6c-2.3,2.6-5.9,3.9-10.8,3.9c-3.1,0-5.5-0.5-7.3-1.6
				c-1.8-1.1-3.2-2.6-4.2-4.4c-1-1.9-1.6-4.1-1.9-6.6c-0.3-2.5-0.4-5.1-0.4-7.8c0-3.1,0.1-6.1,0.3-9c0.2-2.9,0.7-5.5,1.7-7.8
				c0.9-2.3,2.4-4.1,4.4-5.4c2-1.4,4.8-2,8.4-2c1.6,0,3.1,0.2,4.6,0.6c1.5,0.4,2.8,1,3.9,1.9c1.1,0.9,2,2,2.7,3.4
				c0.7,1.4,1,3.2,1.1,5.3h-8.6C45.6,44.7,45.3,43.4,44.7,42.5z M36.7,69.1c0.1,1.1,0.4,2,0.7,2.8c0.4,0.8,0.8,1.4,1.5,1.8
				c0.6,0.4,1.5,0.7,2.5,0.7c1.1,0,1.9-0.2,2.6-0.7c0.6-0.4,1.1-1,1.5-1.8c0.3-0.8,0.5-1.7,0.7-2.8c0.1-1.1,0.2-2.2,0.2-3.4
				c0-3-0.4-5.1-1.1-6.4c-0.7-1.3-2-1.9-3.7-1.9c-1.8,0-3,0.6-3.8,1.9c-0.7,1.3-1.1,3.4-1.1,6.4C36.5,66.8,36.6,68,36.7,69.1z"/>
		</g>
		<g>
			<path class="st0" d="M8.5,4.4v13.7h-3V4.4H8.5z"/>
			<path class="st0" d="M25.6,4.4l5.1,13.7h-3.1l-1-3h-5.1l-1.1,3h-3l5.2-13.7H25.6z M25.7,12.8l-1.7-5h0l-1.8,5H25.7z"/>
			<path class="st0" d="M46.9,4.4c0.6,0,1.2,0.1,1.7,0.3c0.5,0.2,0.9,0.5,1.3,0.8c0.3,0.3,0.6,0.7,0.8,1.2c0.2,0.5,0.3,0.9,0.3,1.5
				c0,0.8-0.2,1.5-0.5,2.1c-0.3,0.6-0.9,1-1.7,1.3v0c0.4,0.1,0.7,0.3,0.9,0.5c0.2,0.2,0.4,0.5,0.6,0.7c0.2,0.3,0.3,0.6,0.3,0.9
				c0.1,0.3,0.1,0.7,0.1,1c0,0.2,0,0.5,0,0.8c0,0.3,0,0.6,0.1,0.9s0.1,0.6,0.2,0.9c0.1,0.3,0.2,0.5,0.3,0.7h-3
				c-0.2-0.4-0.3-0.9-0.3-1.5c0-0.6-0.1-1.2-0.2-1.7c-0.1-0.7-0.3-1.2-0.7-1.6c-0.3-0.3-0.9-0.5-1.6-0.5h-3v5.3h-3V4.4H46.9z
				 M45.8,10.6c0.7,0,1.2-0.2,1.5-0.5c0.3-0.3,0.5-0.8,0.5-1.5c0-0.7-0.2-1.1-0.5-1.4c-0.3-0.3-0.9-0.4-1.5-0.4h-3.3v3.8H45.8z"/>
			<path class="st0" d="M69.7,8c-0.2-0.3-0.4-0.5-0.7-0.8c-0.3-0.2-0.6-0.4-0.9-0.5c-0.3-0.1-0.7-0.2-1.1-0.2
				c-0.7,0-1.2,0.1-1.7,0.4c-0.5,0.3-0.9,0.6-1.1,1.1c-0.3,0.4-0.5,0.9-0.6,1.5c-0.1,0.6-0.2,1.1-0.2,1.7c0,0.6,0.1,1.1,0.2,1.7
				c0.1,0.5,0.3,1,0.6,1.5c0.3,0.4,0.7,0.8,1.1,1c0.5,0.3,1,0.4,1.7,0.4c0.9,0,1.6-0.3,2.2-0.8c0.5-0.6,0.8-1.3,0.9-2.2h2.9
				c-0.1,0.9-0.3,1.6-0.6,2.3c-0.3,0.7-0.7,1.3-1.3,1.8c-0.5,0.5-1.1,0.9-1.8,1.1c-0.7,0.3-1.5,0.4-2.3,0.4c-1,0-2-0.2-2.8-0.5
				c-0.8-0.4-1.5-0.9-2.1-1.5c-0.6-0.6-1-1.4-1.3-2.2c-0.3-0.9-0.5-1.8-0.5-2.8c0-1,0.2-2,0.5-2.8c0.3-0.9,0.7-1.6,1.3-2.3
				c0.6-0.7,1.3-1.2,2.1-1.5c0.8-0.4,1.8-0.6,2.8-0.6c0.8,0,1.5,0.1,2.1,0.3c0.7,0.2,1.3,0.5,1.8,0.9c0.5,0.4,1,0.9,1.3,1.5
				C72.7,7.5,72.9,8.2,73,9h-2.9C70,8.6,69.9,8.3,69.7,8z"/>
		</g>
		<path d="M54.1,53.1v-4.8h6.4V41h4.2v7.3H71v4.8h-6.4v7.3h-4.2v-7.3H54.1z"/>
	</g>
	<g>
		<g>
			<path d="M65.2,83.3V84h-1.5v4.5h-0.9V84h-1.5v-0.7H65.2z M71.3,88.4h-0.9v-4h0l-1.5,4h-0.7l-1.4-4h0v4h-0.9v-5.1h1.4l1.4,3.8h0
				l1.3-3.8h1.4V88.4z"/>
		</g>
		<rect x="71.3" y="88.4" class="st1" width="2.6" height="2.3"/>
	</g>
</g>
</svg>
